{"glyphs":{"1":{"ha":846,"x_min":168,"x_max":570,"o":"m 456 -49 l 570 -49 l 570 1053 l 488 1053 q 168 765 418 879 l 168 651 q 456 825 336 716 l 456 -49 z "},"3":{"ha":836,"x_min":49,"x_max":776,"o":"m 548 526 q 732 770 727 591 q 412 1053 722 1042 q 76 781 141 1047 l 195 743 q 418 949 233 944 q 602 770 591 944 q 358 564 591 570 q 304 564 326 564 l 304 467 q 401 467 326 467 q 651 260 635 456 q 407 33 651 33 q 174 255 206 33 l 49 222 q 418 -65 114 -65 q 776 250 760 -49 q 548 526 765 461 z "},"6":{"ha":846,"x_min":54,"x_max":781,"o":"m 179 363 q 439 22 184 33 q 656 293 646 33 q 439 559 651 553 q 179 363 228 548 m 760 808 l 651 770 q 445 955 608 960 q 174 505 174 949 q 456 656 260 651 q 781 304 760 640 q 439 -65 760 -38 q 54 461 54 -65 q 450 1053 60 1053 q 760 808 689 1042 z "},"7":{"ha":836,"x_min":71,"x_max":776,"o":"m 776 955 l 776 1031 l 71 1031 l 71 922 l 629 922 q 222 -49 304 445 l 353 -49 q 776 955 423 467 z "},"8":{"ha":852,"x_min":60,"x_max":798,"o":"m 423 472 q 184 233 206 461 q 429 22 206 38 q 673 222 651 38 q 423 472 656 461 m 429 955 q 233 770 250 944 q 429 559 239 570 q 618 760 608 564 q 429 955 602 939 m 277 515 q 103 760 114 591 q 429 1053 125 1036 q 749 760 722 1031 q 586 515 738 586 q 798 222 787 439 q 429 -65 781 -54 q 60 233 71 -54 q 277 515 76 445 z "},"￿":{"ha":1389,"x_min":0,"x_max":0,"o":""},"七":{"ha":1389,"x_min":54,"x_max":1329,"o":"m 54 624 l 505 673 l 505 1118 l 624 1118 l 624 684 l 1318 760 l 1329 656 l 624 575 l 624 136 q 760 11 618 5 l 1036 11 q 1172 103 1150 5 q 1199 304 1188 179 q 1242 288 1215 298 q 1313 260 1308 260 q 1275 38 1297 114 q 1058 -87 1232 -92 l 727 -87 q 505 109 505 -87 l 505 564 l 65 510 l 54 624 z "},"与":{"ha":1389,"x_min":43,"x_max":1340,"o":"m 255 510 l 320 1128 l 429 1128 l 407 922 l 1340 922 l 1340 825 l 396 825 l 380 613 l 1248 613 q 1226 309 1242 537 q 1210 98 1215 157 q 911 -125 1199 -141 q 629 -130 792 -130 q 608 -16 618 -38 q 906 -22 689 -22 q 1096 103 1085 -27 q 1123 429 1107 146 q 1128 510 1128 494 l 255 510 m 43 309 l 1015 309 l 1015 206 l 43 206 l 43 309 z "},"中":{"ha":1389,"x_min":130,"x_max":1259,"o":"m 130 846 l 640 846 l 640 1134 l 749 1134 l 749 846 l 1259 846 l 1259 250 l 1156 250 l 1156 320 l 749 320 l 749 -163 l 640 -163 l 640 320 l 233 320 l 233 250 l 130 250 l 130 846 m 1156 749 l 749 749 l 749 418 l 1156 418 l 1156 749 m 233 749 l 233 418 l 640 418 l 640 749 l 233 749 z "},"乐":{"ha":1389,"x_min":49,"x_max":1345,"o":"m 222 1020 q 1166 1080 586 1025 l 1204 977 q 320 928 711 939 l 271 548 l 656 548 l 656 846 l 765 846 l 765 548 l 1280 548 l 1280 450 l 765 450 l 765 38 q 597 -136 776 -146 q 423 -136 472 -136 q 396 -22 412 -81 q 570 -33 532 -33 q 656 54 662 -38 l 656 450 l 146 450 l 222 1020 m 998 369 q 1345 -11 1183 190 l 1264 -87 q 922 309 1128 81 l 998 369 m 380 369 l 467 309 q 125 -81 293 65 q 49 -16 87 -49 q 380 369 222 146 z "},"云":{"ha":1389,"x_min":54,"x_max":1340,"o":"m 901 407 q 1275 -43 1177 76 l 1177 -119 q 1150 -87 1166 -109 q 1080 0 1107 -22 q 298 -27 749 0 q 266 -33 288 -27 q 190 -43 206 -38 l 141 65 q 271 163 212 92 q 532 532 396 309 l 54 532 l 54 629 l 1340 629 l 1340 532 l 673 532 q 331 71 467 233 q 543 76 385 71 q 1015 92 868 87 q 971 152 998 114 q 814 347 857 293 l 901 407 m 179 1036 l 1221 1036 l 1221 933 l 179 933 l 179 1036 z "},"互":{"ha":1389,"x_min":71,"x_max":1324,"o":"m 222 255 l 320 922 l 119 922 l 119 1015 l 1270 1015 l 1270 922 l 429 922 l 401 732 l 1123 732 l 1069 27 l 1324 27 l 1324 -60 l 71 -60 l 71 27 l 960 27 l 977 255 l 222 255 m 1004 640 l 391 640 l 347 347 l 987 347 l 1004 640 z "},"人":{"ha":1389,"x_min":43,"x_max":1340,"o":"m 43 -43 q 651 1107 618 277 l 765 1107 q 738 868 754 982 q 1340 -16 895 190 q 1302 -71 1329 -38 q 1264 -130 1275 -109 q 694 662 841 125 q 125 -146 570 125 q 87 -98 114 -130 q 43 -43 60 -60 z "},"体":{"ha":1389,"x_min":33,"x_max":1356,"o":"m 315 141 q 711 760 586 380 l 407 760 l 407 857 l 787 857 l 787 1123 l 890 1123 l 890 857 l 1297 857 l 1297 760 l 966 760 q 1356 174 1096 353 q 1280 76 1329 152 q 890 760 993 347 l 890 206 l 1096 206 l 1096 114 l 890 114 l 890 -152 l 787 -152 l 787 114 l 581 114 l 581 206 l 787 206 l 787 760 q 391 54 700 374 q 315 141 342 119 m 33 494 q 336 1128 228 754 l 434 1096 q 304 760 380 917 l 304 -152 l 206 -152 l 206 570 q 168 510 195 548 q 81 385 146 472 q 65 423 76 391 q 33 494 38 488 z "},"公":{"ha":1389,"x_min":38,"x_max":1351,"o":"m 873 369 q 1036 174 933 298 q 1264 -87 1183 0 l 1172 -157 q 1128 -103 1156 -141 q 1069 -33 1090 -54 q 494 -60 868 -38 q 347 -71 396 -65 q 195 -92 293 -71 l 146 11 q 255 81 212 38 q 613 597 445 293 l 727 548 q 353 27 608 342 q 993 54 624 38 q 787 304 901 174 l 873 369 m 798 1053 l 895 1090 q 1351 543 1036 727 q 1270 445 1313 505 q 798 1053 933 684 m 38 499 q 488 1069 342 722 l 591 1025 q 119 418 412 651 q 38 499 87 456 z "},"创":{"ha":1389,"x_min":38,"x_max":1270,"o":"m 553 1112 q 521 1063 537 1090 q 836 770 662 944 l 765 689 q 472 977 662 808 q 201 667 353 798 l 738 667 q 727 385 738 559 q 526 212 722 206 q 374 212 407 212 q 358 315 369 271 q 521 309 456 309 q 624 401 629 304 q 629 488 629 429 q 635 575 635 543 l 288 575 l 288 71 q 385 -16 277 -27 l 564 -16 q 700 38 678 -16 q 722 201 711 76 q 825 163 760 184 q 792 0 808 43 q 591 -114 760 -119 l 363 -114 q 184 60 174 -125 l 184 651 q 157 629 174 646 q 98 581 146 618 q 65 635 92 597 q 38 673 43 667 q 445 1134 315 879 l 553 1112 m 1161 1123 l 1264 1123 l 1264 33 q 1101 -136 1270 -136 q 901 -136 1031 -136 q 879 -22 895 -81 q 977 -27 911 -22 q 1063 -27 1036 -27 q 1161 54 1166 -33 l 1161 1123 m 987 184 l 890 184 l 890 993 l 987 993 l 987 184 z "},"力":{"ha":1389,"x_min":49,"x_max":1248,"o":"m 553 1128 l 673 1128 q 662 836 667 977 l 1248 836 q 1226 184 1232 396 q 949 -114 1226 -136 q 716 -114 787 -114 q 716 -103 716 -109 q 694 0 705 -22 q 944 0 814 0 q 1112 206 1118 -16 q 1134 727 1123 401 l 662 727 q 130 -146 656 103 q 49 -54 92 -103 q 543 727 564 195 l 109 727 l 109 836 l 548 836 q 553 1063 548 917 q 553 1128 553 1118 z "},"务":{"ha":1389,"x_min":27,"x_max":1356,"o":"m 445 1145 l 543 1101 q 499 1047 526 1085 q 472 1009 483 1020 l 1172 1009 l 1172 917 q 830 662 1020 760 q 1356 559 1058 575 q 1286 450 1318 499 q 716 602 944 499 q 81 429 467 505 q 27 521 60 477 q 602 662 353 570 q 363 879 461 749 q 136 656 233 738 q 65 727 98 694 q 445 1145 288 901 m 146 374 l 532 374 q 532 385 532 380 q 543 515 543 445 l 651 515 q 635 374 646 439 l 1161 374 q 1150 201 1161 320 q 1145 114 1145 141 q 890 -130 1150 -146 q 684 -130 770 -130 q 678 -98 684 -119 q 667 -22 673 -38 q 776 -27 700 -27 q 884 -33 841 -33 q 1047 119 1042 -49 q 1053 201 1047 141 q 1053 282 1053 266 l 618 282 q 130 -168 553 -22 q 65 -81 98 -125 q 510 282 450 38 l 146 282 l 146 374 m 1025 917 l 445 917 q 716 711 553 792 q 1025 917 895 798 z "},"动":{"ha":1389,"x_min":49,"x_max":1302,"o":"m 852 1128 l 960 1128 q 955 977 960 1074 q 955 852 955 895 l 1302 852 q 1302 803 1302 836 q 1280 103 1291 250 q 1080 -119 1275 -119 q 928 -119 1004 -119 q 906 -5 917 -65 q 1069 -16 1015 -16 q 1177 103 1172 -16 q 1199 760 1199 483 l 949 760 q 949 646 949 705 q 646 -163 944 130 q 564 -76 613 -119 q 846 646 836 146 q 846 760 846 694 l 646 760 l 646 852 l 852 852 q 852 1128 852 987 m 510 401 q 656 81 570 277 q 667 49 646 98 q 597 22 646 43 q 564 5 575 11 q 548 54 559 33 q 98 0 315 33 l 49 109 q 141 222 109 146 q 277 548 212 374 l 49 548 l 49 646 l 684 646 l 684 548 l 385 548 q 190 114 288 288 q 450 136 271 119 q 515 141 494 141 q 467 255 499 179 q 423 363 439 326 l 510 401 m 109 1015 l 635 1015 l 635 917 l 109 917 l 109 1015 z "},"台":{"ha":1389,"x_min":76,"x_max":1356,"o":"m 1166 434 l 1166 -152 l 1058 -152 l 1058 -65 l 331 -65 l 331 -152 l 222 -152 l 222 434 l 1166 434 m 331 336 l 331 16 l 1058 16 l 1058 336 l 331 336 m 966 955 q 1356 564 1221 711 l 1264 488 q 1215 548 1248 510 q 1161 608 1177 591 q 260 570 667 591 q 125 553 179 564 l 76 656 q 184 722 141 678 q 597 1145 412 906 l 694 1085 q 282 673 515 873 q 1074 705 711 694 q 1015 765 1053 727 q 890 890 987 798 l 966 955 z "},"合":{"ha":1389,"x_min":38,"x_max":1351,"o":"m 239 418 l 1150 418 l 1150 -157 l 1053 -157 l 1053 -71 l 342 -71 l 342 -157 l 239 -157 l 239 418 m 673 1139 l 781 1123 q 754 1085 770 1101 q 1351 651 1004 781 q 1280 543 1313 591 q 1080 656 1188 586 l 1080 586 l 309 586 l 309 651 q 141 548 260 613 q 103 526 114 532 q 38 624 76 570 q 673 1139 477 836 m 342 326 l 342 16 l 1053 16 l 1053 326 l 342 326 m 694 998 q 347 678 559 825 l 1053 678 q 694 998 830 836 z "},"器":{"ha":1389,"x_min":33,"x_max":1345,"o":"m 760 271 l 1183 271 q 700 515 819 320 l 689 515 q 222 271 624 342 l 618 271 l 618 -136 l 526 -136 l 526 -65 l 250 -65 l 250 -141 l 157 -141 l 157 260 q 87 250 125 250 q 65 288 81 260 q 33 342 38 331 q 586 515 515 391 l 87 515 l 87 602 l 624 602 q 640 700 635 646 l 738 700 q 722 602 732 646 l 944 602 q 917 640 939 613 q 901 673 906 662 l 987 705 q 1020 646 993 689 q 1047 602 1042 618 l 1313 602 l 1313 515 l 808 515 q 1345 358 960 363 q 1340 347 1345 353 q 1291 255 1308 288 q 1259 260 1280 255 q 1226 266 1237 260 l 1226 -141 l 1134 -141 l 1134 -65 l 852 -65 l 852 -136 l 760 -136 l 760 271 m 760 1053 l 1221 1053 l 1221 716 l 760 716 l 760 1053 m 157 1053 l 618 1053 l 618 716 l 157 716 l 157 1053 m 852 190 l 852 5 l 1134 5 l 1134 190 l 852 190 m 250 190 l 250 5 l 526 5 l 526 190 l 250 190 m 852 971 l 852 798 l 1134 798 l 1134 971 l 852 971 m 250 971 l 250 798 l 526 798 l 526 971 l 250 971 z "},"团":{"ha":1389,"x_min":119,"x_max":1270,"o":"m 119 1058 l 1270 1058 l 1270 -152 l 1172 -152 l 1172 -92 l 217 -92 l 217 -157 l 119 -157 l 119 1058 m 217 971 l 217 0 l 1172 0 l 1172 971 l 217 971 m 282 738 l 776 738 l 776 928 l 873 928 l 873 738 l 1123 738 l 1123 646 l 873 646 l 873 255 q 684 60 884 54 q 543 60 591 60 q 515 163 526 130 q 667 157 543 157 q 776 271 787 146 l 776 581 q 304 141 635 353 q 239 228 282 190 q 711 646 532 391 l 282 646 l 282 738 z "},"国":{"ha":1389,"x_min":119,"x_max":1270,"o":"m 119 1058 l 1270 1058 l 1270 -152 l 1172 -152 l 1172 -92 l 222 -92 l 222 -157 l 119 -157 l 119 1058 m 222 966 l 222 0 l 1172 0 l 1172 966 l 222 966 m 331 570 l 646 570 l 646 749 l 304 749 l 304 836 l 1085 836 l 1085 749 l 743 749 l 743 570 l 1058 570 l 1058 483 l 743 483 l 743 222 l 1107 222 l 1107 136 l 282 136 l 282 222 l 646 222 l 646 483 l 331 483 l 331 570 m 808 396 l 884 456 q 1009 315 928 412 l 928 255 q 808 396 863 342 z "},"场":{"ha":1389,"x_min":43,"x_max":1297,"o":"m 1031 955 l 515 955 l 515 1053 l 1221 1053 l 1221 955 l 700 624 l 1297 624 q 1286 380 1291 553 q 1270 130 1275 195 q 1058 -125 1275 -136 q 901 -125 977 -125 q 884 -16 895 -65 q 1047 -27 977 -27 q 1172 119 1172 -38 q 1188 472 1177 228 q 1194 532 1194 515 l 1053 532 q 646 -157 993 92 q 570 -81 608 -119 q 955 532 901 136 l 787 532 q 418 0 716 206 q 342 65 385 33 q 689 532 624 255 l 532 532 l 532 629 l 1031 955 m 43 157 q 233 239 125 201 l 233 694 l 54 694 l 54 787 l 233 787 l 233 1118 l 331 1118 l 331 787 l 494 787 l 494 694 l 331 694 l 331 282 q 477 353 380 304 q 483 320 477 342 q 494 255 483 277 q 157 98 396 212 q 81 60 103 71 l 43 157 z "},"城":{"ha":1389,"x_min":33,"x_max":1356,"o":"m 911 1128 l 1009 1128 q 1015 890 1009 987 l 1340 890 l 1340 798 l 1015 798 q 1020 684 1020 743 q 1063 304 1036 439 q 1215 640 1150 450 l 1308 602 q 1090 174 1215 363 q 1188 -16 1134 49 q 1242 -5 1226 -49 q 1270 217 1259 76 q 1356 179 1313 190 q 1329 -27 1345 49 q 1221 -141 1308 -141 q 1107 -76 1156 -141 q 1020 81 1058 0 q 798 -141 928 -38 q 765 -109 787 -130 q 722 -65 732 -71 q 987 190 884 54 q 922 694 944 385 q 917 798 922 743 l 586 798 l 586 591 l 846 591 q 841 190 846 266 q 678 33 846 27 q 629 27 662 33 q 586 27 597 27 q 575 87 581 49 q 564 130 570 125 q 667 130 597 130 q 749 206 749 125 q 749 331 749 239 q 754 505 754 450 l 586 505 q 396 -157 597 49 q 315 -92 331 -103 q 456 157 429 43 q 488 532 488 266 l 488 890 l 917 890 q 911 1128 911 1004 m 33 212 q 87 228 49 217 q 195 250 157 244 l 195 700 l 43 700 l 43 792 l 195 792 l 195 1112 l 293 1112 l 293 792 l 434 792 l 434 700 l 293 700 l 293 277 q 369 298 315 288 q 434 320 412 315 q 434 217 434 304 q 49 98 244 163 l 33 212 m 1069 1047 l 1128 1107 q 1259 1009 1177 1074 q 1291 982 1280 993 l 1221 911 q 1069 1047 1161 977 z "},"培":{"ha":1389,"x_min":38,"x_max":1340,"o":"m 564 374 l 1232 374 l 1232 -152 l 1134 -152 l 1134 -65 l 662 -65 l 662 -152 l 564 -152 l 564 374 m 38 114 q 228 163 119 130 l 228 694 l 54 694 l 54 787 l 228 787 l 228 1123 l 326 1123 l 326 787 l 499 787 l 499 694 l 326 694 l 326 190 q 505 244 396 206 q 510 136 505 212 q 76 5 358 98 l 38 114 m 662 282 l 662 16 l 1134 16 l 1134 282 l 662 282 m 472 591 l 955 591 q 971 618 960 602 q 1112 846 1069 770 l 1210 787 q 1069 591 1145 684 l 1340 591 l 1340 505 l 472 505 l 472 591 m 808 1096 l 895 1139 q 960 1031 917 1101 q 982 993 977 998 l 906 960 l 1297 960 l 1297 873 l 521 873 l 521 960 l 884 960 q 808 1096 846 1020 m 597 792 l 684 841 q 819 662 781 722 l 732 602 q 597 792 662 711 z "},"字":{"ha":1389,"x_min":49,"x_max":1345,"o":"m 656 434 l 922 597 l 288 597 l 288 694 l 1085 694 l 1085 591 l 765 385 l 765 353 l 1345 353 l 1345 255 l 765 255 l 765 22 q 586 -146 770 -146 q 521 -146 564 -146 q 401 -146 439 -152 q 385 -33 396 -98 q 570 -43 494 -43 q 656 43 656 -43 l 656 255 l 49 255 l 49 353 l 656 353 l 656 434 m 591 1096 l 689 1145 q 803 960 749 1047 l 743 933 l 1302 933 l 1302 667 l 1194 667 l 1194 836 l 206 836 l 206 667 l 98 667 l 98 933 l 689 933 q 624 1042 673 971 q 591 1096 602 1080 z "},"宇":{"ha":1389,"x_min":54,"x_max":1340,"o":"m 54 385 l 673 385 l 673 591 l 228 591 l 228 689 l 1194 689 l 1194 591 l 776 591 l 776 385 l 1340 385 l 1340 293 l 776 293 l 776 38 q 591 -130 787 -130 q 407 -130 510 -130 q 391 -38 401 -92 q 385 -16 385 -22 q 570 -22 434 -22 q 673 71 678 -27 l 673 293 l 54 293 l 54 385 m 597 1107 l 700 1145 q 749 1042 716 1107 q 770 987 765 1004 l 678 955 l 1291 955 l 1291 711 l 1188 711 l 1188 857 l 206 857 l 206 711 l 98 711 l 98 955 l 667 955 q 597 1107 640 1025 z "},"工":{"ha":1389,"x_min":60,"x_max":1329,"o":"m 60 33 l 635 33 l 635 906 l 136 906 l 136 1009 l 1253 1009 l 1253 906 l 749 906 l 749 33 l 1329 33 l 1329 -65 l 60 -65 l 60 33 z "},"市":{"ha":1389,"x_min":60,"x_max":1335,"o":"m 60 933 l 673 933 q 581 1096 629 1015 l 678 1145 q 781 971 743 1058 l 694 933 l 1335 933 l 1335 830 l 749 830 l 749 651 l 1221 651 l 1221 168 q 1053 0 1232 -5 q 879 0 982 0 q 857 98 873 33 q 922 98 879 98 q 1020 92 982 92 q 1118 184 1123 87 l 1118 553 l 749 553 l 749 -157 l 640 -157 l 640 553 l 277 553 l 277 -22 l 174 -22 l 174 651 l 640 651 l 640 830 l 60 830 l 60 933 z "},"平":{"ha":1389,"x_min":54,"x_max":1335,"o":"m 119 1069 l 1280 1069 l 1280 966 l 749 966 l 749 418 l 1335 418 l 1335 315 l 749 315 l 749 -157 l 640 -157 l 640 315 l 54 315 l 54 418 l 640 418 l 640 966 l 119 966 l 119 1069 m 852 553 q 1118 884 971 684 l 1204 825 q 933 483 1053 618 l 852 553 m 184 825 l 266 879 q 521 553 374 749 l 429 483 q 184 825 347 613 z "},"府":{"ha":1389,"x_min":38,"x_max":1335,"o":"m 667 1107 l 760 1134 q 825 977 792 1063 l 760 955 l 1335 955 l 1335 863 l 271 863 l 271 591 q 119 -152 277 98 q 38 -65 98 -125 q 174 564 179 119 l 174 955 l 722 955 q 667 1107 705 1015 m 602 608 l 1047 608 l 1047 830 l 1139 830 l 1139 608 l 1324 608 l 1324 515 l 1139 515 l 1139 38 q 955 -136 1145 -141 q 873 -141 922 -136 q 808 -141 830 -141 q 787 -33 803 -81 q 955 -38 852 -38 q 1047 49 1053 -43 l 1047 515 l 602 515 l 602 608 m 288 407 q 559 846 456 575 l 662 803 q 543 591 618 716 l 543 -146 l 445 -146 l 445 439 q 336 304 401 374 q 288 407 320 353 m 760 445 q 841 277 787 396 q 890 179 873 206 l 798 130 q 673 401 732 282 l 760 445 z "},"引":{"ha":1389,"x_min":119,"x_max":1221,"o":"m 250 445 l 792 445 q 781 309 787 396 q 765 87 770 157 q 499 -130 760 -141 q 260 -130 369 -130 q 233 -11 250 -71 q 494 -16 320 -16 q 662 103 662 -27 q 678 304 667 157 q 678 347 673 282 l 119 347 l 195 749 l 673 749 l 673 971 l 119 971 l 119 1069 l 776 1069 l 776 656 l 288 656 l 250 445 m 1112 1123 l 1221 1123 l 1221 -152 l 1112 -152 l 1112 1123 z "},"德":{"ha":1389,"x_min":38,"x_max":1351,"o":"m 472 819 l 819 819 l 819 928 l 439 928 l 439 1009 l 819 1009 l 819 1128 l 906 1128 l 906 1009 l 1313 1009 l 1313 928 l 906 928 l 906 819 l 1259 819 l 1259 483 l 472 483 l 472 819 m 38 347 q 347 776 195 494 l 434 732 q 358 608 412 689 q 315 532 331 559 l 315 -152 l 222 -152 l 222 401 q 81 244 163 326 q 38 347 60 293 m 608 233 l 700 233 l 700 49 q 792 -33 694 -38 l 939 -33 q 1031 22 1020 -38 q 1047 114 1036 54 q 1053 163 1053 152 q 1145 125 1090 146 q 1118 -5 1128 43 q 960 -119 1090 -125 l 770 -119 q 608 33 597 -130 l 608 233 m 407 391 l 1335 391 l 1335 309 l 407 309 l 407 391 m 54 770 q 342 1128 217 906 l 429 1074 q 103 678 288 852 q 54 770 76 722 m 472 228 l 559 201 q 434 -65 515 60 q 353 -22 401 -49 q 472 228 423 87 m 559 738 l 559 564 l 711 564 l 711 738 l 559 738 m 1172 738 l 1020 738 l 1020 564 l 1172 564 l 1172 738 m 792 738 l 792 564 l 939 564 l 939 738 l 792 738 m 1139 206 l 1221 250 q 1351 27 1302 114 l 1264 -11 q 1139 206 1215 92 m 760 250 l 825 298 q 944 157 873 244 q 960 136 939 168 l 884 81 q 760 250 803 184 z "},"心":{"ha":1389,"x_min":43,"x_max":1351,"o":"m 385 879 l 488 879 l 488 109 q 608 -5 483 -11 l 863 -5 q 1009 87 998 -16 q 1015 146 1009 109 q 1031 282 1025 228 q 1139 244 1096 260 q 1107 38 1123 125 q 873 -109 1080 -114 l 586 -109 q 385 87 380 -114 l 385 879 m 1123 776 q 1156 716 1134 754 q 1351 298 1286 450 l 1242 244 q 1020 732 1145 505 l 1123 776 m 190 732 l 293 705 q 146 163 228 396 l 43 206 q 190 732 141 494 m 667 1139 q 863 808 743 1025 q 884 765 879 781 l 776 711 q 575 1090 689 911 l 667 1139 z "},"总":{"ha":1389,"x_min":38,"x_max":1345,"o":"m 212 901 l 781 901 q 933 1134 868 1020 l 1031 1085 q 993 1036 1020 1069 q 895 901 928 939 l 1177 901 l 1177 429 l 212 429 l 212 901 m 315 814 l 315 515 l 1074 515 l 1074 814 l 315 814 m 380 298 l 483 298 l 483 76 q 586 -22 477 -27 l 792 -22 q 939 60 928 -33 q 955 195 949 114 q 1058 157 993 174 q 1025 5 1042 54 q 803 -114 993 -125 l 559 -114 q 380 54 374 -119 l 380 298 m 174 331 l 271 304 q 136 -49 228 141 q 38 -11 54 -16 q 174 331 125 152 m 1058 288 l 1139 342 q 1345 49 1215 239 l 1253 -5 q 1058 288 1156 141 m 581 342 l 662 401 q 830 190 754 288 l 743 125 q 581 342 689 222 m 358 1085 l 439 1134 q 564 987 488 1085 q 581 966 575 971 l 488 906 q 374 1069 467 949 q 358 1085 363 1080 z "},"才":{"ha":1389,"x_min":43,"x_max":1335,"o":"m 43 71 q 803 760 591 363 l 87 760 l 87 857 l 884 857 l 884 1123 l 993 1123 l 993 857 l 1335 857 l 1335 760 l 993 760 l 993 92 q 781 -119 1004 -119 q 570 -119 700 -119 q 543 -5 553 -38 q 760 -11 646 -11 q 884 103 895 -22 l 884 700 q 125 -16 651 266 q 43 71 92 16 z "},"技":{"ha":1389,"x_min":38,"x_max":1351,"o":"m 526 532 l 526 618 l 863 618 l 863 819 l 521 819 l 521 911 l 863 911 l 863 1123 l 966 1123 l 966 911 l 1324 911 l 1324 819 l 966 819 l 966 618 l 1248 618 l 1248 537 q 993 114 1139 266 q 1351 -49 1101 22 q 1329 -71 1345 -54 q 1275 -146 1286 -125 q 911 43 1069 -65 q 499 -168 749 -76 q 429 -76 472 -130 q 841 119 705 16 q 613 532 705 255 l 526 532 m 38 434 q 228 494 114 456 l 228 770 l 54 770 l 54 863 l 228 863 l 228 1118 l 331 1118 l 331 863 l 483 863 l 483 770 l 331 770 l 331 521 q 477 570 407 548 q 483 467 477 505 q 439 456 472 461 q 331 418 369 434 l 331 16 q 184 -136 342 -136 q 76 -141 141 -141 q 65 -87 76 -130 q 49 -27 54 -43 q 168 -33 81 -33 q 228 27 233 -38 l 228 385 q 49 326 125 353 l 38 434 m 1134 532 l 716 532 q 917 179 798 298 q 1134 532 1058 315 z "},"收":{"ha":1389,"x_min":71,"x_max":1351,"o":"m 494 570 q 760 1134 667 836 l 863 1101 q 770 873 819 977 l 1329 873 l 1329 776 l 1183 776 q 977 157 1123 342 q 1351 -43 1101 38 q 1335 -71 1345 -49 q 1280 -146 1297 -125 q 906 81 1047 -38 q 559 -157 765 -49 q 537 -130 553 -146 q 488 -71 499 -76 q 836 157 732 43 q 651 635 705 320 q 564 488 613 564 q 494 570 532 532 m 374 1123 l 477 1123 l 477 -152 l 374 -152 l 374 244 q 212 146 288 195 q 146 87 190 130 l 71 174 q 109 288 109 217 l 109 939 l 212 939 l 212 266 q 271 298 222 271 q 374 358 336 336 l 374 1123 m 906 239 q 1074 776 1036 418 l 727 776 q 906 239 770 412 z "},"政":{"ha":1389,"x_min":43,"x_max":1356,"o":"m 825 1128 l 928 1090 q 830 879 879 987 l 1340 879 l 1340 787 l 1221 787 q 1025 179 1172 374 q 1356 -38 1145 43 q 1335 -65 1351 -43 q 1280 -141 1297 -114 q 960 98 1063 -16 q 608 -163 846 -27 q 537 -76 581 -125 q 890 179 770 43 q 716 673 765 353 q 673 608 705 651 q 662 597 667 602 q 591 678 629 640 q 825 1128 743 868 m 76 1004 l 689 1004 l 689 911 l 472 911 l 472 581 l 667 581 l 667 488 l 472 488 l 472 136 q 586 157 510 141 q 700 179 667 174 q 700 81 694 125 q 434 33 651 71 q 54 -33 146 -16 l 43 60 q 141 76 87 71 l 141 700 l 239 700 l 239 92 q 309 109 260 98 q 374 119 353 114 l 374 911 l 76 911 l 76 1004 m 960 266 q 1112 787 1090 450 l 792 787 q 960 266 841 434 z "},"教":{"ha":1389,"x_min":38,"x_max":1351,"o":"m 635 467 q 873 1112 787 738 l 966 1090 q 906 873 939 977 l 1329 873 l 1329 781 l 1199 781 q 1036 195 1177 396 q 1351 -49 1134 65 q 1324 -87 1345 -60 q 1286 -146 1297 -125 q 977 114 1069 -5 q 629 -157 868 -16 q 564 -76 608 -119 q 922 195 808 54 q 787 564 825 347 q 754 499 776 543 q 716 418 732 445 q 635 467 678 450 m 54 711 l 309 711 l 309 846 l 109 846 l 109 933 l 309 933 l 309 1112 l 407 1112 l 407 933 l 570 933 l 570 846 l 407 846 l 407 711 l 472 711 q 684 993 586 836 l 765 944 q 586 711 678 814 l 684 711 l 684 624 l 505 624 q 385 510 450 570 l 618 510 l 618 429 l 450 260 l 450 244 q 548 260 483 250 q 689 288 646 277 q 684 195 684 233 q 581 179 651 190 q 450 157 494 163 l 450 5 q 298 -136 461 -136 q 152 -141 228 -141 q 146 -98 152 -130 q 136 -38 141 -54 q 277 -38 217 -38 q 353 22 358 -43 l 353 141 q 222 114 309 136 q 92 87 136 98 l 76 184 q 353 228 190 195 l 353 298 l 488 429 l 288 429 q 98 288 201 353 q 38 369 71 331 q 168 445 103 401 l 168 510 l 255 510 q 385 624 320 570 l 54 624 l 54 711 m 873 781 q 863 754 873 770 q 852 722 857 732 q 982 282 895 434 q 1101 781 1080 434 l 873 781 z "},"数":{"ha":1389,"x_min":33,"x_max":1362,"o":"m 911 1128 l 1009 1118 q 944 879 987 993 l 1340 879 l 1340 787 l 1259 787 q 1080 174 1221 396 q 1362 -54 1172 49 q 1291 -146 1313 -103 q 1020 87 1123 -38 q 732 -168 933 -22 q 716 -146 705 -136 q 662 -81 667 -87 q 960 179 868 49 q 825 597 868 326 q 765 499 798 548 q 722 559 760 510 q 700 586 705 581 q 911 1128 852 803 m 54 374 l 255 374 q 293 434 271 396 q 309 467 304 456 l 407 445 l 363 374 l 694 374 q 537 60 678 163 q 586 38 553 54 q 684 0 651 5 l 624 -81 q 537 -38 597 -71 q 450 0 483 -11 q 81 -152 298 -98 q 49 -98 76 -136 q 33 -65 38 -76 q 358 43 217 -22 q 146 141 293 76 q 119 152 250 98 q 206 288 163 212 l 54 288 l 54 374 m 380 1118 l 472 1118 l 472 825 l 743 825 l 743 738 l 472 738 l 472 618 l 521 673 q 716 537 602 624 l 656 467 q 613 499 640 477 q 472 613 532 570 l 472 477 l 380 477 l 380 667 q 98 439 282 548 q 43 515 81 472 q 347 738 228 608 l 71 738 l 71 825 l 380 825 l 380 1118 m 1020 271 q 1156 787 1123 439 l 911 787 q 895 743 906 770 q 1020 271 933 439 m 244 184 q 445 98 342 146 q 586 288 570 190 l 309 288 q 277 239 298 266 q 244 184 255 201 m 684 1069 l 749 1004 q 586 857 684 939 l 521 922 q 684 1069 602 987 m 98 1015 l 163 1069 q 315 922 233 1004 l 239 863 q 98 1015 195 917 z "},"新":{"ha":1389,"x_min":43,"x_max":1351,"o":"m 776 1020 q 1280 1074 1031 1020 l 1313 971 q 873 928 1128 944 l 873 618 l 1351 618 l 1351 532 l 1161 532 l 1161 -146 l 1063 -146 l 1063 532 l 873 532 l 873 488 q 678 -152 884 76 q 608 -71 646 -114 q 776 499 781 109 l 776 1020 m 347 553 l 439 553 l 439 429 l 700 429 l 700 342 l 439 342 l 439 5 q 282 -130 445 -130 q 179 -130 217 -130 q 163 -33 174 -87 q 282 -38 190 -38 q 347 27 347 -38 l 347 342 l 76 342 l 76 429 l 347 429 l 347 553 m 43 667 l 423 667 q 553 879 510 792 l 651 825 q 526 667 586 743 l 732 667 l 732 586 l 43 586 l 43 667 m 309 1096 l 391 1134 q 472 993 445 1047 l 434 977 l 700 977 l 700 890 l 81 890 l 81 977 l 374 977 q 326 1069 363 1004 q 309 1096 315 1085 m 179 288 l 266 244 q 233 179 255 222 q 130 -16 163 38 q 43 22 54 16 q 179 288 114 141 m 553 282 q 684 98 613 212 l 602 38 q 477 228 543 141 l 553 282 m 152 830 l 222 879 q 277 803 239 857 q 336 727 315 754 l 255 673 q 228 711 244 689 q 152 830 201 765 z "},"服":{"ha":1389,"x_min":43,"x_max":1356,"o":"m 613 1047 l 1264 1047 l 1253 852 q 1047 678 1259 667 q 879 678 966 678 q 868 732 879 694 q 857 781 863 765 q 1031 776 939 776 q 1156 857 1161 765 l 1161 955 l 716 955 l 716 581 l 1270 581 l 1270 505 q 1074 98 1210 255 q 1356 -60 1172 5 q 1280 -152 1313 -114 q 1009 27 1118 -71 q 770 -141 911 -60 q 716 -54 743 -98 q 944 98 873 16 q 776 494 819 260 l 716 494 l 716 -152 l 613 -152 l 613 1047 m 136 1058 l 505 1058 l 505 -5 q 380 -136 510 -136 q 260 -136 331 -136 q 244 -43 255 -92 q 353 -43 271 -43 q 412 5 418 -49 l 412 298 l 228 298 q 119 -152 233 0 q 43 -81 87 -119 q 136 320 146 38 l 136 1058 m 1166 494 l 863 494 q 1009 168 906 309 q 1166 494 1123 315 m 228 635 l 228 380 l 412 380 l 412 635 l 228 635 m 228 971 l 228 722 l 412 722 l 412 971 l 228 971 z "},"机":{"ha":1389,"x_min":33,"x_max":1362,"o":"m 732 944 l 732 586 q 684 136 732 288 q 499 -168 640 -22 q 445 -114 483 -152 q 418 -87 429 -98 q 586 174 543 38 q 629 586 629 315 l 629 1042 l 1112 1042 l 1112 76 q 1166 -5 1107 -11 l 1183 -5 q 1242 60 1237 -11 q 1259 244 1253 109 q 1264 282 1264 271 q 1362 250 1308 260 q 1345 81 1356 190 q 1340 27 1340 43 q 1188 -109 1318 -114 l 1161 -109 q 1009 60 1004 -119 l 1009 944 l 732 944 m 33 293 q 250 776 184 515 l 49 776 l 49 868 l 255 868 l 255 1123 l 353 1123 l 353 868 l 537 868 l 537 776 l 353 776 l 353 559 l 407 613 q 564 461 499 532 l 494 391 q 477 407 488 396 q 353 537 418 483 l 353 -146 l 255 -146 l 255 548 q 81 190 190 336 q 54 244 76 206 q 33 293 38 277 z "},"柳":{"ha":1389,"x_min":38,"x_max":1297,"o":"m 939 1058 l 1291 1058 l 1291 217 q 1172 87 1297 81 q 1080 87 1118 87 q 1063 184 1074 130 q 1150 179 1107 179 q 1199 228 1204 174 l 1199 971 l 1031 971 l 1031 -152 l 939 -152 l 939 1058 m 743 846 l 836 846 q 836 412 836 646 q 494 -168 846 11 q 434 -87 467 -130 q 732 282 711 43 q 640 233 705 271 q 613 217 624 222 q 591 201 608 212 q 548 168 564 184 l 483 255 q 515 342 521 288 l 515 1042 q 852 1101 694 1058 l 884 1009 q 608 960 711 971 l 608 320 q 743 396 667 353 q 743 423 743 407 q 743 846 743 618 m 228 1118 l 320 1118 l 320 857 l 461 857 l 461 765 l 320 765 l 320 608 l 363 640 q 505 456 445 543 l 434 401 q 342 526 401 445 q 320 559 326 548 l 320 -152 l 228 -152 l 228 532 q 87 190 179 363 q 71 228 81 201 q 38 304 43 282 q 228 765 157 521 l 76 765 l 76 857 l 228 857 l 228 1118 z "},"楼":{"ha":1389,"x_min":43,"x_max":1345,"o":"m 559 141 q 624 222 575 163 q 667 277 651 255 l 467 277 l 467 363 l 727 363 q 792 461 760 412 l 884 423 q 841 363 868 396 l 1335 363 l 1335 277 l 1150 277 q 998 54 1096 146 q 1112 11 1036 38 q 1313 -65 1188 -11 l 1253 -152 q 917 0 1134 -87 q 461 -157 765 -103 q 412 -65 423 -81 q 814 38 673 -22 q 673 92 770 54 q 559 141 597 125 m 43 304 q 239 770 184 532 l 71 770 l 71 857 l 239 857 l 239 1128 l 331 1128 l 331 857 l 483 857 l 483 770 l 331 770 l 331 656 l 385 700 q 423 667 396 689 q 515 586 505 591 l 445 526 q 429 548 439 532 q 331 640 363 613 l 331 -157 l 239 -157 l 239 543 q 81 190 179 336 q 43 304 65 255 m 857 1134 l 949 1134 l 949 819 l 1308 819 l 1308 732 l 1020 732 q 1345 521 1139 602 q 1335 510 1345 515 q 1286 439 1297 461 q 949 705 1053 559 l 949 456 l 857 456 l 857 705 q 521 423 711 521 q 505 445 515 429 q 456 499 483 472 q 787 732 651 591 l 526 732 l 526 819 l 857 819 l 857 1134 m 700 179 q 743 163 716 174 q 901 92 803 141 q 1047 277 987 157 l 776 277 q 727 217 760 255 q 700 179 711 190 m 1270 1025 q 1090 852 1215 966 l 1025 911 q 1101 982 1047 933 q 1199 1080 1166 1047 l 1270 1025 m 543 1020 l 608 1074 q 781 917 694 1004 l 705 852 q 543 1020 635 939 z "},"正":{"ha":1389,"x_min":43,"x_max":1345,"o":"m 255 727 l 363 727 l 363 22 l 700 22 l 700 917 l 103 917 l 103 1015 l 1297 1015 l 1297 917 l 808 917 l 808 570 l 1253 570 l 1253 472 l 808 472 l 808 22 l 1345 22 l 1345 -71 l 43 -71 l 43 22 l 255 22 l 255 727 z "},"民":{"ha":1389,"x_min":136,"x_max":1335,"o":"m 174 1074 l 1226 1074 l 1226 651 l 830 651 q 863 418 841 521 l 1329 418 l 1329 320 l 884 320 q 1031 27 944 136 q 1139 -33 1096 -33 q 1199 16 1177 -33 q 1210 54 1199 27 q 1237 228 1226 146 q 1302 201 1259 217 q 1335 190 1324 195 q 1291 -5 1318 71 q 1150 -146 1253 -146 q 960 -43 1047 -146 q 781 320 841 98 l 277 320 l 277 -16 q 412 27 320 0 q 597 98 537 76 q 597 -5 597 33 q 298 -114 467 -43 q 195 -163 244 -141 l 136 -71 q 174 11 174 -33 l 174 1074 m 277 977 l 277 743 l 1123 743 l 1123 977 l 277 977 m 760 418 q 722 651 738 521 l 277 651 l 277 418 l 760 418 z "},"泰":{"ha":1389,"x_min":33,"x_max":1351,"o":"m 803 304 q 966 391 895 342 q 857 521 906 450 l 521 521 q 412 401 472 461 q 586 309 494 358 l 532 233 q 336 342 439 293 q 92 174 233 260 q 33 266 60 217 q 391 521 255 374 l 54 521 l 54 608 l 461 608 q 532 727 499 662 l 152 727 l 152 814 l 570 814 q 602 922 586 863 l 109 922 l 109 1009 l 624 1009 q 635 1063 624 1025 q 646 1134 640 1112 l 749 1118 q 738 1063 749 1101 q 727 1009 732 1031 l 1280 1009 l 1280 922 l 705 922 q 673 814 689 863 l 1237 814 l 1237 727 l 640 727 q 629 700 635 716 q 575 608 597 640 l 1335 608 l 1335 521 l 966 521 q 1351 277 1118 342 q 1324 233 1345 266 q 1291 179 1308 206 q 1036 326 1139 244 q 857 222 939 266 l 803 304 m 651 472 l 754 472 l 754 22 q 591 -136 765 -146 q 434 -136 532 -141 q 418 -27 423 -49 q 570 -38 515 -38 q 651 43 656 -43 l 651 472 m 792 125 l 830 201 q 1259 38 993 146 l 1215 -49 q 792 125 1058 22 m 581 212 q 602 125 586 163 q 369 38 526 98 q 163 -33 233 -5 l 130 54 q 581 212 391 136 z "},"济":{"ha":1389,"x_min":43,"x_max":1351,"o":"m 765 1112 l 863 1145 q 928 993 895 1069 l 841 966 l 1313 966 l 1313 873 l 1150 873 q 922 591 1053 689 q 1351 494 1085 515 q 1297 385 1313 423 q 830 526 998 439 q 385 369 667 434 q 331 467 363 412 q 738 591 597 515 q 515 873 597 694 l 401 873 l 401 966 l 825 966 q 765 1112 814 1015 m 309 -71 q 532 98 488 11 q 586 401 586 184 l 689 401 q 629 49 689 163 q 380 -157 570 -60 q 336 -103 374 -146 q 309 -71 320 -81 m 987 407 l 1090 407 l 1090 -130 l 987 -130 l 987 407 m 195 391 q 298 353 250 374 q 250 141 288 304 q 179 -141 201 -60 l 71 -109 q 195 391 152 130 m 629 873 q 830 640 716 716 q 1036 873 960 727 l 629 873 m 103 781 q 190 716 125 760 q 320 613 277 651 l 250 532 q 65 689 206 564 q 43 711 49 705 l 103 781 m 163 1096 q 228 1047 179 1080 q 374 928 326 966 l 298 852 q 92 1025 190 949 l 163 1096 z "},"清":{"ha":1389,"x_min":38,"x_max":1351,"o":"m 570 -146 l 472 -146 l 472 510 l 1248 510 l 1248 11 q 1080 -136 1253 -141 q 901 -136 960 -136 q 890 -71 895 -119 q 884 -38 884 -49 q 960 -38 911 -38 q 1063 -43 1020 -43 q 1150 16 1156 -49 l 1150 81 l 570 81 l 570 -146 m 461 846 l 814 846 l 814 939 l 418 939 l 418 1015 l 814 1015 l 814 1134 l 906 1134 l 906 1015 l 1324 1015 l 1324 939 l 906 939 l 906 846 l 1291 846 l 1291 765 l 906 765 l 906 673 l 1351 673 l 1351 591 l 385 591 l 385 673 l 814 673 l 814 765 l 461 765 l 461 846 m 570 255 l 570 163 l 1150 163 l 1150 255 l 570 255 m 87 -109 q 228 391 157 81 q 331 347 277 369 q 195 -146 282 174 l 87 -109 m 570 429 l 570 336 l 1150 336 l 1150 429 l 570 429 m 92 1031 l 157 1101 q 369 928 212 1069 q 385 917 380 922 l 309 841 q 92 1031 195 949 m 38 689 l 103 765 q 331 597 244 667 l 260 510 q 38 689 146 618 z "},"港":{"ha":1389,"x_min":38,"x_max":1351,"o":"m 412 971 l 591 971 l 591 1123 l 689 1123 l 689 971 l 955 971 l 955 1123 l 1047 1123 l 1047 971 l 1259 971 l 1259 884 l 1047 884 l 1047 711 l 1308 711 l 1308 624 l 1047 624 q 1351 342 1145 456 q 1302 282 1335 331 q 1280 255 1286 266 q 1074 439 1166 331 l 1074 141 l 602 141 l 602 54 q 694 -27 602 -27 l 1036 -27 q 1150 43 1128 -27 q 1177 184 1166 103 q 1270 141 1215 163 q 1242 16 1259 71 q 1053 -114 1204 -114 l 667 -114 q 510 43 510 -114 l 510 363 q 358 239 439 298 q 288 320 315 293 q 608 624 499 445 l 347 624 l 347 711 l 591 711 l 591 884 l 412 884 l 412 971 m 602 385 l 602 228 l 982 228 l 982 385 l 602 385 m 195 418 q 298 374 255 396 q 184 -146 244 141 l 71 -114 q 195 418 136 81 m 705 624 q 602 467 656 543 l 1053 467 q 944 624 993 543 l 705 624 m 689 884 l 689 711 l 955 711 l 955 884 l 689 884 m 103 776 q 157 732 119 765 q 331 591 304 618 l 260 510 q 38 700 130 635 l 103 776 m 157 1096 q 380 906 288 993 l 309 830 q 92 1025 212 928 l 157 1096 z "},"物":{"ha":1389,"x_min":27,"x_max":1297,"o":"m 472 613 q 711 1134 608 830 l 803 1101 q 727 906 770 1004 l 1297 906 q 1259 119 1264 271 q 1025 -114 1248 -125 q 873 -114 960 -114 q 863 -43 868 -92 q 852 0 857 -11 q 1025 -11 949 -11 q 1156 136 1150 -27 q 1194 814 1172 298 l 1090 814 q 624 -130 1058 125 q 559 -54 591 -92 q 998 814 977 201 l 879 814 q 537 103 836 353 q 510 130 526 114 q 461 179 499 146 q 781 814 754 407 l 689 814 q 553 564 618 656 q 472 613 521 586 m 293 1123 l 391 1123 l 391 825 l 521 825 l 521 738 l 391 738 l 391 461 q 521 510 456 488 q 537 412 532 450 q 499 396 526 407 q 391 358 472 385 l 391 -157 l 293 -157 l 293 320 q 130 255 239 298 q 60 228 81 239 l 43 342 q 141 374 76 353 q 293 429 239 407 l 293 738 l 174 738 q 109 510 152 618 q 27 564 71 543 q 119 998 98 760 l 212 982 q 190 825 206 901 l 293 825 l 293 1123 z "},"电":{"ha":1389,"x_min":114,"x_max":1340,"o":"m 597 1128 l 700 1128 l 700 955 l 1183 955 l 1183 217 l 700 217 l 700 81 q 819 -11 689 -16 l 1080 -11 q 1210 54 1194 -16 q 1232 222 1226 98 q 1340 190 1297 206 q 1308 11 1329 87 q 1090 -109 1280 -114 l 792 -109 q 597 76 586 -119 l 597 217 l 212 217 l 212 125 l 114 125 l 114 955 l 597 955 l 597 1128 m 700 315 l 1080 315 l 1080 543 l 700 543 l 700 315 m 212 543 l 212 315 l 597 315 l 597 543 l 212 543 m 1080 857 l 700 857 l 700 629 l 1080 629 l 1080 857 m 212 857 l 212 629 l 597 629 l 597 857 l 212 857 z "},"科":{"ha":1389,"x_min":38,"x_max":1345,"o":"m 54 738 l 271 738 l 271 933 q 168 922 239 928 q 81 911 109 911 q 54 1009 71 960 q 559 1069 315 1031 l 597 971 q 434 955 548 966 q 369 944 391 949 l 369 738 l 581 738 l 581 646 l 369 646 l 369 483 l 434 543 q 521 461 461 515 q 602 385 575 407 l 526 315 q 369 472 461 391 l 369 -152 l 271 -152 l 271 434 q 87 87 190 222 q 38 201 65 141 q 266 646 184 396 l 54 646 l 54 738 m 1025 1123 l 1128 1123 l 1128 320 l 1335 342 l 1345 250 l 1128 228 l 1128 -152 l 1025 -152 l 1025 217 l 521 174 l 510 266 l 1025 315 l 1025 1123 m 667 922 l 732 987 q 798 933 749 971 q 966 792 922 830 l 895 716 q 667 922 808 803 m 591 608 l 651 673 q 738 602 678 651 q 884 483 846 515 l 814 407 q 673 537 776 445 q 591 608 613 586 z "},"站":{"ha":1389,"x_min":43,"x_max":1345,"o":"m 879 1128 l 982 1128 l 982 857 l 1345 857 l 1345 760 l 982 760 l 982 467 l 1275 467 l 1275 -152 l 1172 -152 l 1172 -76 l 732 -76 l 732 -152 l 629 -152 l 629 467 l 879 467 l 879 1128 m 732 374 l 732 5 l 1172 5 l 1172 374 l 732 374 m 43 65 q 174 87 81 71 q 320 114 271 109 q 456 684 423 521 l 559 662 q 526 537 548 624 q 418 136 450 266 q 586 168 510 152 q 591 71 586 109 q 65 -33 331 22 l 43 65 m 60 846 l 602 846 l 602 754 l 60 754 l 60 846 m 103 662 l 195 684 q 298 244 244 505 l 201 217 q 168 374 190 266 q 103 662 130 570 m 239 1112 l 336 1134 q 363 1053 347 1107 q 412 906 396 960 l 309 879 q 239 1112 282 987 z "},"经":{"ha":1389,"x_min":38,"x_max":1351,"o":"m 559 971 l 559 1063 l 1194 1063 l 1194 971 q 987 743 1112 846 q 1351 543 1280 586 l 1286 450 q 917 678 1112 570 q 515 456 765 553 q 456 548 488 499 q 830 738 700 635 q 1069 971 966 836 l 559 971 m 564 407 l 1232 407 l 1232 315 l 949 315 l 949 0 l 1318 0 l 1318 -92 l 472 -92 l 472 0 l 846 0 l 846 315 l 564 315 l 564 407 m 201 347 q 483 374 309 358 q 467 282 477 326 q 87 239 266 271 l 54 336 q 141 418 109 369 q 271 597 222 521 q 71 586 168 597 l 38 678 q 114 765 71 700 q 315 1139 222 939 l 418 1096 q 163 678 288 873 q 244 684 190 678 q 326 684 304 684 q 363 743 336 705 q 429 846 385 776 l 521 803 q 201 347 412 635 m 43 54 q 434 114 152 76 q 488 125 407 114 q 488 27 488 76 q 71 -33 244 0 l 43 54 z "},"综":{"ha":1389,"x_min":38,"x_max":1351,"o":"m 195 336 q 483 363 342 353 q 472 266 472 315 q 98 228 195 250 l 65 326 q 146 412 103 358 q 277 597 228 515 q 174 591 239 597 q 65 586 98 591 l 38 678 q 98 749 54 689 q 114 770 109 760 q 304 1128 212 928 l 396 1085 q 146 673 309 917 q 331 678 201 678 q 423 836 380 760 l 515 787 q 195 336 353 532 m 526 434 l 1340 434 l 1340 342 l 998 342 l 998 5 q 846 -136 1004 -141 q 700 -141 803 -141 q 694 -87 700 -125 q 684 -33 684 -49 q 825 -38 738 -38 q 895 22 901 -43 l 895 342 l 526 342 l 526 434 m 830 1107 l 922 1145 q 1004 987 982 1042 l 944 960 l 1318 960 l 1318 749 l 1226 749 l 1226 873 l 646 873 l 646 749 l 548 749 l 548 960 l 906 960 q 830 1107 857 1058 m 608 689 l 1264 689 l 1264 602 l 608 602 l 608 689 m 38 38 q 233 65 103 49 q 488 103 407 92 q 477 5 477 49 q 54 -54 244 -16 l 38 38 m 673 277 l 765 239 q 581 -81 678 71 q 488 -22 537 -49 q 673 277 591 119 m 1085 233 l 1172 277 q 1199 233 1183 260 q 1351 -11 1302 71 l 1259 -65 q 1226 -5 1248 -43 q 1085 233 1172 92 z "},"网":{"ha":1389,"x_min":136,"x_max":1264,"o":"m 233 -141 l 136 -141 l 136 1053 l 1253 1053 l 1253 27 q 1090 -136 1264 -130 q 901 -136 1015 -136 q 879 -33 895 -71 q 939 -33 890 -33 q 1058 -38 1015 -38 q 1156 38 1161 -43 l 1156 955 l 233 955 l 233 136 q 429 467 347 304 q 309 673 391 537 q 250 776 271 743 l 326 819 q 353 770 336 803 q 477 559 401 700 q 581 803 521 646 q 591 836 586 825 l 678 803 q 537 467 613 624 q 586 380 553 439 q 684 206 656 266 l 597 157 q 483 369 543 266 q 309 81 401 206 l 233 130 l 233 -141 m 673 732 l 749 776 q 857 597 781 727 q 895 532 884 553 q 1025 825 977 689 l 1118 792 q 955 434 1020 564 q 1123 136 1047 277 l 1036 87 q 966 212 1015 125 q 901 336 922 293 q 879 304 895 326 q 727 60 781 125 l 646 114 q 846 434 760 271 q 673 732 754 591 z "},"联":{"ha":1389,"x_min":38,"x_max":1345,"o":"m 54 1031 l 602 1031 l 602 939 l 521 939 l 521 212 q 640 233 575 217 q 646 141 640 190 q 586 130 624 141 q 521 119 543 125 l 521 -152 l 429 -152 l 429 98 q 157 49 336 81 q 54 27 87 33 l 38 130 q 141 146 87 141 l 141 939 l 54 939 l 54 1031 m 570 510 l 879 510 q 879 586 879 548 l 879 749 l 608 749 l 608 846 l 955 846 q 1118 1123 1031 960 l 1210 1080 q 1063 846 1139 960 l 1286 846 l 1286 749 l 977 749 l 977 591 q 977 510 977 548 l 1329 510 l 1329 418 l 987 418 q 1345 -49 1080 109 q 1275 -141 1308 -92 q 939 293 1015 49 q 613 -157 879 43 q 581 -119 602 -146 q 537 -71 553 -87 q 868 418 836 109 l 570 418 l 570 510 m 233 157 q 320 174 266 163 q 429 195 391 190 l 429 380 l 233 380 l 233 157 m 233 662 l 233 467 l 429 467 l 429 662 l 233 662 m 233 939 l 233 749 l 429 749 l 429 939 l 233 939 m 656 1069 l 732 1123 q 884 933 814 1031 l 798 873 q 656 1069 738 971 z "},"育":{"ha":1389,"x_min":54,"x_max":1335,"o":"m 228 548 l 1166 548 l 1166 0 q 1004 -136 1172 -136 q 830 -141 922 -141 q 808 -33 825 -87 q 987 -38 868 -38 q 1063 16 1069 -43 l 1063 65 l 331 65 l 331 -152 l 228 -152 l 228 548 m 933 890 q 1286 629 1166 722 l 1226 553 q 1166 602 1204 570 q 1096 656 1123 640 q 331 646 754 656 q 260 640 309 646 q 190 635 217 640 l 157 732 q 298 787 228 743 q 477 901 401 836 l 54 901 l 54 987 l 673 987 q 651 1063 667 1015 q 635 1112 640 1096 l 732 1134 q 776 987 749 1063 l 1335 987 l 1335 901 l 635 901 q 369 732 483 798 q 977 743 749 743 q 928 787 960 760 q 873 825 890 814 l 933 890 m 331 266 l 331 152 l 1063 152 l 1063 266 l 331 266 m 331 461 l 331 353 l 1063 353 l 1063 461 l 331 461 z "},"西":{"ha":1389,"x_min":60,"x_max":1335,"o":"m 141 760 l 499 760 q 499 955 499 841 l 60 955 l 60 1047 l 1335 1047 l 1335 955 l 911 955 l 911 760 l 1280 760 l 1280 -152 l 1177 -152 l 1177 -71 l 244 -71 l 244 -152 l 141 -152 l 141 760 m 955 239 q 808 396 798 228 l 808 667 l 597 667 q 342 179 597 363 q 315 212 336 184 q 266 260 271 255 q 494 667 488 407 l 244 667 l 244 11 l 1177 11 l 1177 667 l 911 667 l 911 412 q 982 336 906 331 q 1107 342 1025 336 q 1139 342 1134 342 l 1123 244 q 955 239 1107 239 m 602 955 q 602 760 602 846 l 808 760 l 808 955 l 602 955 z "},"训":{"ha":1389,"x_min":38,"x_max":1280,"o":"m 564 1096 l 662 1096 l 662 613 q 618 114 667 271 q 439 -163 575 -43 q 347 -92 423 -146 q 521 141 477 0 q 564 618 564 288 l 564 1096 m 1177 1096 l 1280 1096 l 1280 -146 l 1177 -146 l 1177 1096 m 873 1053 l 971 1053 l 971 -65 l 873 -65 l 873 1053 m 445 298 q 456 174 445 239 q 260 0 396 125 q 212 -38 228 -27 l 152 33 q 201 157 206 76 l 201 597 l 38 597 l 38 694 l 298 694 l 298 157 q 374 228 320 179 q 445 298 429 282 m 206 1096 q 412 884 358 944 l 320 808 q 130 1036 244 917 l 206 1096 z "},"谷":{"ha":1389,"x_min":43,"x_max":1351,"o":"m 689 933 l 792 895 q 776 873 787 890 q 754 846 760 857 q 1351 461 1015 553 q 1286 353 1318 407 q 694 770 917 499 q 266 412 505 548 l 1123 412 l 1123 -152 l 1025 -152 l 1025 -49 l 369 -49 l 369 -152 l 266 -152 l 266 412 q 109 331 190 363 q 43 429 87 374 q 689 933 445 581 m 369 320 l 369 33 l 1025 33 l 1025 320 l 369 320 m 868 1128 q 1313 830 1053 1020 l 1248 738 q 808 1053 1058 890 l 868 1128 m 510 1134 l 586 1063 q 157 722 374 857 q 92 808 125 765 q 510 1134 326 944 z "},"费":{"ha":1389,"x_min":43,"x_max":1302,"o":"m 836 1123 l 928 1123 l 928 1015 l 1242 1015 l 1242 743 l 928 743 l 928 629 l 1302 629 q 1297 515 1302 570 q 1172 391 1291 396 q 1128 391 1156 391 l 1128 54 l 1036 54 l 1036 326 l 374 326 l 374 38 l 282 38 l 282 326 q 244 309 271 320 q 98 255 201 293 q 43 347 76 304 q 445 553 374 423 l 152 553 l 190 825 l 505 825 q 505 873 505 841 q 510 939 510 917 l 130 939 l 130 1015 l 510 1015 q 510 1123 510 1074 l 608 1123 q 608 1015 608 1069 l 836 1015 l 836 1123 m 662 266 l 754 266 q 732 130 754 184 q 1291 -65 1150 -11 l 1242 -152 q 694 49 982 -43 q 163 -163 602 -81 q 130 -98 157 -141 q 114 -65 119 -76 q 548 43 439 -22 q 662 266 656 109 m 1204 553 l 928 553 l 928 439 l 836 439 l 836 553 l 548 553 q 429 407 521 472 l 1042 407 q 1020 477 1036 445 q 1145 477 1107 477 q 1204 515 1199 477 q 1204 553 1204 537 m 597 743 q 575 629 591 689 l 836 629 l 836 743 l 597 743 m 255 629 l 483 629 q 488 656 483 640 q 499 743 499 716 l 271 743 l 255 629 m 602 939 q 597 825 602 873 l 836 825 l 836 939 l 602 939 m 1150 939 l 928 939 l 928 825 l 1150 825 l 1150 939 z "},"车":{"ha":1389,"x_min":54,"x_max":1324,"o":"m 331 521 l 694 521 l 694 776 l 798 776 l 798 521 l 1177 521 l 1177 429 l 798 429 l 798 206 l 1324 206 l 1324 109 l 798 109 l 798 -157 l 694 -157 l 694 109 l 54 109 l 54 206 l 694 206 l 694 429 l 212 429 l 212 526 q 407 830 320 673 l 109 830 l 109 928 l 461 928 q 521 1031 483 966 q 575 1134 559 1101 l 678 1107 q 575 928 629 1020 l 1270 928 l 1270 830 l 521 830 q 331 521 423 678 z "},"进":{"ha":1389,"x_min":38,"x_max":1345,"o":"m 391 515 l 618 515 q 618 586 618 548 l 618 798 l 450 798 l 450 890 l 618 890 l 618 1123 l 722 1123 l 722 890 l 982 890 l 982 1123 l 1085 1123 l 1085 890 l 1286 890 l 1286 798 l 1085 798 l 1085 515 l 1335 515 l 1335 423 l 1085 423 l 1085 22 l 982 22 l 982 423 l 711 423 q 488 22 700 179 q 407 103 456 60 q 608 423 602 228 l 391 423 l 391 515 m 575 -22 q 971 -22 694 -27 q 1345 -16 1280 -22 q 1308 -119 1329 -60 q 987 -119 1232 -125 q 564 -114 705 -119 q 250 27 342 -119 q 92 -141 195 -16 l 38 -27 q 206 125 152 76 l 206 564 l 49 564 l 49 662 l 309 662 l 309 103 q 575 -22 374 -22 m 722 591 q 716 515 722 548 l 982 515 l 982 798 l 722 798 l 722 591 m 201 1101 q 385 852 282 1004 l 293 792 q 119 1053 222 911 l 201 1101 z "},"部":{"ha":1389,"x_min":49,"x_max":1335,"o":"m 1313 944 q 1161 602 1264 814 q 1335 266 1329 456 q 1090 27 1335 33 q 993 27 1004 27 q 977 136 987 71 q 1015 136 982 136 q 1090 130 1069 130 q 1237 271 1237 130 q 1053 586 1226 445 q 1112 722 1069 624 q 1215 955 1183 879 l 944 955 l 944 -152 l 846 -152 l 846 1047 l 1313 1047 l 1313 944 m 141 380 l 711 380 l 711 -146 l 613 -146 l 613 -49 l 239 -49 l 239 -152 l 141 -152 l 141 380 m 239 288 l 239 33 l 613 33 l 613 288 l 239 288 m 49 602 l 467 602 q 597 846 526 700 l 689 803 q 602 651 662 754 q 570 602 581 618 l 798 602 l 798 515 l 49 515 l 49 602 m 331 1096 l 423 1134 q 505 977 488 1025 l 439 949 l 776 949 l 776 863 l 76 863 l 76 949 l 412 949 q 407 966 412 955 q 331 1096 363 1047 m 163 798 l 244 841 q 363 656 331 722 l 277 608 q 163 798 212 722 z "},"里":{"ha":1389,"x_min":43,"x_max":1351,"o":"m 125 260 l 646 260 l 646 412 l 174 412 l 174 1058 l 1215 1058 l 1215 412 l 743 412 l 743 260 l 1264 260 l 1264 168 l 743 168 l 743 0 l 1351 0 l 1351 -87 l 43 -87 l 43 0 l 646 0 l 646 168 l 125 168 l 125 260 m 1118 971 l 743 971 l 743 776 l 1118 776 l 1118 971 m 271 971 l 271 776 l 646 776 l 646 971 l 271 971 m 271 689 l 271 499 l 646 499 l 646 689 l 271 689 m 743 689 l 743 499 l 1118 499 l 1118 689 l 743 689 z "},"镇":{"ha":1389,"x_min":38,"x_max":1345,"o":"m 515 1020 l 857 1020 l 857 1123 l 949 1123 l 949 1020 l 1302 1020 l 1302 939 l 949 939 l 949 846 l 1226 846 l 1226 184 l 1345 184 l 1345 103 l 477 103 l 477 184 l 586 184 l 586 846 l 857 846 l 857 939 l 515 939 l 515 1020 m 38 722 q 244 1128 163 895 l 342 1096 q 266 928 309 1009 l 477 928 l 477 841 l 222 841 q 136 700 184 765 l 456 700 l 456 613 l 315 613 l 315 429 l 488 429 l 488 342 l 315 342 l 315 43 q 439 136 380 92 q 445 114 439 130 q 461 33 445 71 q 320 -54 369 -11 q 244 -119 277 -81 l 174 -33 q 222 71 228 0 l 222 342 l 54 342 l 54 429 l 222 429 l 222 613 l 136 613 l 136 689 q 114 662 130 684 q 92 635 103 646 q 38 722 65 684 m 673 271 l 673 184 l 1134 184 l 1134 271 l 673 271 m 673 765 l 673 678 l 1134 678 l 1134 765 l 673 765 m 673 439 l 673 353 l 1134 353 l 1134 439 l 673 439 m 673 602 l 673 515 l 1134 515 l 1134 602 l 673 602 m 982 0 l 1031 81 q 1150 27 1074 60 q 1340 -65 1275 -27 l 1286 -157 q 982 0 1134 -60 m 770 81 l 825 0 q 727 -49 792 -11 q 515 -157 597 -114 q 505 -136 510 -152 q 461 -71 494 -114 q 770 81 624 0 z "},"际":{"ha":1389,"x_min":103,"x_max":1345,"o":"m 499 288 q 363 76 499 92 q 233 76 315 76 q 212 179 228 125 q 326 179 282 174 q 401 293 401 179 q 271 602 401 439 l 380 955 l 201 955 l 201 -157 l 103 -157 l 103 1053 l 483 1053 l 483 955 l 374 618 q 499 288 499 445 m 488 689 l 1335 689 l 1335 591 l 960 591 l 960 16 q 798 -141 966 -136 q 646 -141 716 -141 q 624 -33 646 -92 q 705 -38 651 -33 q 776 -38 754 -38 q 857 33 863 -43 l 857 591 l 488 591 l 488 689 m 553 1020 l 1259 1020 l 1259 922 l 553 922 l 553 1020 m 646 445 l 743 412 q 543 -27 635 136 q 450 5 494 0 q 646 445 553 201 m 1053 401 l 1139 439 q 1302 119 1204 320 q 1345 22 1329 54 l 1253 -16 q 1242 5 1237 16 q 1053 401 1128 255 z "},"集":{"ha":1389,"x_min":38,"x_max":1351,"o":"m 662 1090 l 738 1139 q 841 1004 792 1074 l 781 966 l 1286 966 l 1286 884 l 787 884 l 787 792 l 1226 792 l 1226 716 l 787 716 l 787 618 l 1226 618 l 1226 543 l 787 543 l 787 450 l 1291 450 l 1291 369 l 331 369 l 331 315 l 239 315 l 239 787 q 103 640 179 716 q 43 727 76 689 q 363 1123 239 890 l 450 1080 q 407 1009 439 1053 q 380 966 391 982 l 749 966 q 662 1090 711 1031 m 651 336 l 738 336 l 738 250 l 1302 250 l 1302 168 l 830 168 q 1351 -43 1025 16 q 1297 -141 1318 -92 q 738 141 949 -43 l 738 -157 l 651 -157 l 651 141 q 92 -146 429 -38 q 54 -76 81 -125 q 38 -54 43 -60 q 559 168 363 22 l 81 168 l 81 250 l 651 250 l 651 336 m 331 543 l 331 450 l 694 450 l 694 543 l 331 543 m 331 716 l 331 618 l 694 618 l 694 716 l 331 716 m 331 884 l 331 792 l 694 792 l 694 884 l 331 884 z "},"黄":{"ha":1389,"x_min":60,"x_max":1335,"o":"m 212 586 l 646 586 l 646 700 l 60 700 l 60 787 l 418 787 l 418 917 l 98 917 l 98 1004 l 418 1004 l 418 1134 l 515 1134 l 515 1004 l 879 1004 l 879 1134 l 977 1134 l 977 1004 l 1291 1004 l 1291 917 l 977 917 l 977 787 l 1335 787 l 1335 700 l 743 700 l 743 586 l 1177 586 l 1177 81 l 212 81 l 212 586 m 532 60 l 591 -16 q 119 -168 391 -92 q 98 -125 109 -152 q 71 -81 76 -92 q 532 60 277 -33 m 798 -16 l 846 60 q 906 43 868 54 q 1313 -71 1183 -27 l 1275 -157 q 1194 -130 1248 -152 q 798 -16 939 -54 m 515 917 l 515 787 l 879 787 l 879 917 l 515 917 m 743 293 l 743 163 l 1080 163 l 1080 293 l 743 293 m 309 293 l 309 163 l 646 163 l 646 293 l 309 293 m 1080 499 l 743 499 l 743 374 l 1080 374 l 1080 499 m 309 499 l 309 374 l 646 374 l 646 499 l 309 499 z "},"龙":{"ha":1389,"x_min":38,"x_max":1340,"o":"m 71 868 l 461 868 q 467 993 467 906 q 472 1123 472 1080 l 575 1123 q 564 868 575 982 l 1329 868 l 1329 765 l 814 765 l 814 304 q 1150 673 1009 461 l 1242 613 q 814 168 1053 347 l 814 81 q 922 -16 803 -33 l 1085 -16 q 1210 65 1194 -22 q 1210 81 1210 71 q 1232 266 1226 195 q 1340 239 1280 250 q 1308 27 1329 136 q 1096 -119 1286 -125 l 906 -119 q 705 60 700 -125 l 705 92 q 472 -33 564 5 q 439 11 461 -16 q 407 54 418 38 q 705 222 575 125 l 705 765 l 559 765 q 109 -157 521 119 q 38 -76 76 -114 q 450 765 418 168 l 71 765 l 71 868 m 830 1053 l 890 1128 q 933 1101 906 1118 q 1112 966 1047 1015 l 1042 884 q 830 1053 982 933 z "},"（":{"ha":1389,"x_min":640,"x_max":1004,"o":"m 901 -195 l 1004 -195 q 754 483 749 109 q 1004 1177 754 852 l 906 1177 q 640 483 646 852 q 901 -195 651 103 z "},"）":{"ha":1389,"x_min":385,"x_max":749,"o":"m 391 -195 l 488 -195 q 749 483 738 103 q 488 1177 743 852 l 385 1177 q 635 483 635 852 q 391 -195 640 114 z "}}}
